<svg width="140" height="36" viewBox="0 0 140 36" fill="none" xmlns="http://www.w3.org/2000/svg">
<path d="M9.57617 0H22.6337V4.60855H14.1847V31.4514H9.57617V0Z" fill="white"/>
<path d="M37.3008 0V31.4514H32.6922V19.0406H34.1071L34.0263 19.0002L32.6922 18.2321L28.8517 16.0087V31.4514H24.2432V0H37.3008ZM32.6922 13.1788V4.60855H28.8517V10.9554L32.6922 13.1788Z" fill="white"/>
<path d="M51.9678 0V13.098L49.7444 14.3512L51.9678 15.6448V31.4514H38.9102V0H51.9678ZM47.3592 19.0406H48.7741L48.6933 19.0002L47.3592 18.2321L43.5188 16.0087V26.8428H47.3592V19.0406ZM47.3592 13.1788V4.60855H43.5188V10.9554L47.3592 13.1788Z" fill="white"/>
<path d="M66.6348 0V31.4514H62.0263V19.0406H63.4412L63.3603 19.0002L62.0263 18.2321L58.1858 16.0087V31.4514H53.5772V0H66.6348ZM62.0263 13.1788V4.60855H58.1858V10.9554L62.0263 13.1788Z" fill="white"/>
<path d="M76.6933 0H81.3018V31.4514H76.6933V19.0406H78.1082L78.0273 19.0002L76.6933 18.2321L72.8528 16.0087V31.4514H68.2443V0H72.8528V10.9554L76.6933 13.1788V0Z" fill="white"/>
<path d="M95.9689 9.78307H91.3603V4.60855H87.5198V26.8428H91.3603V13.1788L95.9689 15.847V31.4514H82.9113V0H95.9689V9.78307Z" fill="white"/>
<path d="M110.636 0V13.098L108.412 14.3512L110.636 15.6448V31.4514H106.027V19.0406H107.442L107.361 19.0002L106.027 18.2321L102.187 16.0087V31.4514H97.5783V0H102.187V10.9554L106.027 13.1788V0H110.636Z" fill="white"/>
<path d="M125.303 0V31.4514H120.694V19.0406H122.109L122.028 19.0002L120.694 18.2321L116.854 16.0087V31.4514H112.245V0H125.303ZM120.694 13.1788V4.60855H116.854V10.9554L120.694 13.1788Z" fill="white"/>
<path d="M131.521 4.60855V13.1788L135.321 15.4023H135.361V4.60855H131.521ZM126.912 0H139.97V31.4514H135.361V21.264H136.776L135.887 20.7789L135.361 20.4555L133.663 19.4853L131.521 20.6981V31.4514H126.912V18.1108L129.095 16.8172L126.953 15.6044L126.912 15.564V0Z" fill="white"/>
<path d="M6.70353 28.1024V29.0436L5.62666 29.2047V30.3494L6.70353 30.5105V31.3669L0.768029 30.4173L0.768029 29.0521L6.70353 28.1024ZM4.82113 30.2307V29.3319L1.81946 29.7813L4.82113 30.2307Z" fill="white"/>
<path d="M0.768029 26.4381C0.768029 25.952 0.881086 25.6015 1.1072 25.3867C1.33332 25.1663 1.67531 25.056 2.13319 25.056H2.34518C2.65043 25.056 2.90198 25.1041 3.09983 25.2002C3.29768 25.2963 3.44466 25.4489 3.54076 25.6581C3.63685 25.4037 3.79513 25.2256 4.0156 25.1239C4.2304 25.0165 4.49609 24.9628 4.81265 24.9628H5.29597C5.75385 24.9628 6.10433 25.0815 6.3474 25.3189C6.58482 25.5563 6.70353 25.9096 6.70353 26.3788V27.8457H0.768029L0.768029 26.4381ZM4.03255 26.913H5.8556V26.3788C5.8556 26.2205 5.8132 26.1018 5.72841 26.0227C5.64362 25.9379 5.49099 25.8955 5.27053 25.8955H4.75329C4.4763 25.8955 4.28693 25.9435 4.18518 26.0396C4.08343 26.1301 4.03255 26.2827 4.03255 26.4975V26.913ZM1.61596 26.913H3.18463V26.5484C3.18463 26.3731 3.1394 26.2375 3.04896 26.1414C2.95851 26.0396 2.79458 25.9887 2.55716 25.9887H2.22647C2.01166 25.9887 1.8562 26.0283 1.76011 26.1075C1.66401 26.1809 1.61596 26.2997 1.61596 26.4636V26.913Z" fill="white"/>
<path d="M0.768029 24.8332L0.768029 21.9503H1.61596V22.9254H6.70353V23.8581H1.61596V24.8332H0.768029Z" fill="white"/>
<path d="M5.33837 20.845C5.55317 20.845 5.7058 20.8026 5.79625 20.7178C5.88104 20.6274 5.92344 20.5087 5.92344 20.3617C5.92344 20.2147 5.88104 20.0988 5.79625 20.014C5.7058 19.9236 5.55317 19.8784 5.33837 19.8784H2.13319C1.91839 19.8784 1.76859 19.9236 1.68379 20.014C1.59335 20.0988 1.54812 20.2147 1.54812 20.3617C1.54812 20.5087 1.59335 20.6274 1.68379 20.7178C1.76859 20.8026 1.91839 20.845 2.13319 20.845H5.33837ZM2.19255 21.7777C1.71206 21.7777 1.34462 21.6562 1.09024 21.4131C0.830211 21.17 0.700195 20.8196 0.700195 20.3617C0.700195 19.9038 0.830211 19.5533 1.09024 19.3102C1.34462 19.0672 1.71206 18.9456 2.19255 18.9456H5.27901C5.7595 18.9456 6.12977 19.0672 6.3898 19.3102C6.64418 19.5533 6.77136 19.9038 6.77136 20.3617C6.77136 20.8196 6.64418 21.17 6.3898 21.4131C6.12977 21.6562 5.7595 21.7777 5.27901 21.7777H2.19255Z" fill="white"/>
<path d="M5.8556 15.9054V15.1507H0.768029L0.768029 14.2095H6.70353V18.5255H0.768029L0.768029 17.6012H5.8556V16.8381H0.768029L0.768029 15.9054H5.8556Z" fill="white"/>
<path d="M4.33781 12.4808L4.88048 12.7691H6.70353V13.7019L0.768029 13.7019L0.768029 12.7691H3.35421L0.768029 11.5312L0.768029 10.6154L3.41357 11.9127L6.70353 10.6154V11.5736L4.33781 12.4808Z" fill="white"/>
<path d="M5.33837 9.51257C5.55317 9.51257 5.7058 9.47017 5.79625 9.38538C5.88104 9.29493 5.92344 9.17622 5.92344 9.02925C5.92344 8.88227 5.88104 8.76639 5.79625 8.6816C5.7058 8.59115 5.55317 8.54593 5.33837 8.54593L2.13319 8.54593C1.91839 8.54593 1.76859 8.59115 1.68379 8.6816C1.59335 8.76639 1.54812 8.88227 1.54812 9.02925C1.54812 9.17622 1.59335 9.29493 1.68379 9.38538C1.76859 9.47017 1.91839 9.51257 2.13319 9.51257H5.33837ZM2.19255 10.4453C1.71206 10.4453 1.34462 10.3238 1.09024 10.0807C0.830211 9.83761 0.700195 9.48713 0.700195 9.02925C0.700195 8.57137 0.830211 8.22089 1.09024 7.97782C1.34462 7.73474 1.71206 7.61321 2.19255 7.61321H5.27901C5.7595 7.61321 6.12977 7.73474 6.3898 7.97782C6.64418 8.22089 6.77136 8.57137 6.77136 9.02925C6.77136 9.48713 6.64418 9.83761 6.3898 10.0807C6.12977 10.3238 5.7595 10.4453 5.27901 10.4453H2.19255Z" fill="white"/>
<path d="M1.61596 4.57292V5.65827H5.22813C5.52774 5.65827 5.77364 5.69501 5.96583 5.7685C6.15803 5.84199 6.31066 5.94091 6.42371 6.06527C6.53112 6.18964 6.60743 6.33378 6.65265 6.49772C6.69788 6.656 6.72049 6.82276 6.72049 6.998C6.72049 7.08279 6.72049 7.1591 6.72049 7.22694C6.72049 7.29477 6.71484 7.36826 6.70353 7.4474H5.8556C5.86125 7.39652 5.86408 7.34282 5.86408 7.28629C5.86408 7.22976 5.86408 7.17606 5.86408 7.12518C5.86408 6.97821 5.82734 6.85385 5.75385 6.7521C5.68036 6.64469 5.52774 6.59099 5.29597 6.59099H0.768029L0.768029 3.6402L6.70353 3.6402V4.57292L1.61596 4.57292Z" fill="white"/>
<path d="M6.70353 0.121094V1.06229L5.62666 1.2234V2.3681L6.70353 2.52921V3.38562L0.768029 2.43594L0.768029 1.07077L6.70353 0.121094ZM4.82113 2.24939V1.35059L1.81946 1.79999L4.82113 2.24939Z" fill="white"/>
<line x1="-0.00181818" y1="35" x2="139.577" y2="34.7462" stroke="white" stroke-width="2"/>
</svg>
