<svg width="55" height="57" viewBox="0 0 55 57" fill="none" xmlns="http://www.w3.org/2000/svg">
<path fill-rule="evenodd" clip-rule="evenodd" d="M54.9801 43.2621H0V46.5647C0.00161555 47.0923 0.21196 47.5978 0.58509 47.9709C0.95822 48.3439 1.46381 48.5541 1.99144 48.5556H52.9886C53.5163 48.5541 54.022 48.3439 54.3951 47.9707C54.7683 47.5976 54.9786 47.0919 54.9801 46.5642V43.2621ZM35.1394 7.32328C34.8615 6.45502 34.5268 5.60598 34.1374 4.78165C32.7296 1.82734 30.8594 0 28.8612 0C26.8629 0 24.9926 1.82734 23.5842 4.78165C23.1948 5.60598 22.8601 6.45502 22.5822 7.32328H35.1394ZM33.6874 0.686783C37.4351 1.78672 40.6982 4.12662 42.9424 7.32328H37.0627C36.7269 6.18188 36.3038 5.06801 35.797 3.99156C35.2464 2.7997 34.5367 1.68799 33.6874 0.686783ZM20.6595 7.32328H14.78C17.0242 4.12676 20.2872 1.78693 24.0347 0.686895C23.1854 1.68801 22.4757 2.7997 21.9252 3.99156C21.4184 5.06801 20.9953 6.18188 20.6595 7.32328ZM20.691 27.1731H14.8536C17.0961 30.3172 20.3292 32.6174 24.0347 33.7053C23.1854 32.7041 22.4757 31.5925 21.9252 30.4006C21.4337 29.3571 21.0212 28.2782 20.691 27.1731ZM19.3168 18.1153H11.6892C11.8202 20.6415 12.5101 23.1071 13.7092 25.3344H20.2005C19.6613 22.9643 19.3652 20.5455 19.3168 18.1153ZM38.4054 16.2766H46.033C45.9041 13.7905 45.2337 11.3624 44.0688 9.1623H37.5457C38.0693 11.4992 38.3573 13.8826 38.4054 16.277V16.2766ZM21.1559 16.2766H36.5663C36.5183 13.8796 36.2141 11.4946 35.6588 9.1623H22.0633C21.5081 11.4947 21.2039 13.8798 21.1559 16.277V16.2766ZM11.6892 16.2766H19.3168C19.3649 13.8824 19.6529 11.4991 20.1764 9.1623H13.6533C12.4884 11.3626 11.8181 13.7907 11.6892 16.277V16.2766ZM41.4172 22.7394L34.0771 20.7727L37.8724 34.9364L40.2756 31.0465C40.341 30.9166 40.4363 30.804 40.5537 30.718C40.6711 30.632 40.8072 30.5751 40.9508 30.552C41.0945 30.5288 41.2416 30.54 41.38 30.5848C41.5185 30.6295 41.6443 30.7065 41.7473 30.8093L46.8787 35.9408L49.2452 33.5742L44.1138 28.4427L44.116 28.4404C44.0185 28.3426 43.9443 28.2239 43.8991 28.0934C43.8538 27.9628 43.8387 27.8238 43.8547 27.6865C43.8708 27.5493 43.9176 27.4175 43.9918 27.3009C44.066 27.1843 44.1655 27.086 44.283 27.0133L48.2414 24.5679L41.4172 22.7394ZM34.3943 29.0511C33.6595 30.7375 32.7764 32.1007 31.7954 33.0351C30.8802 33.9068 29.8855 34.3923 28.8612 34.3923C26.8628 34.3923 24.9926 32.565 23.5842 29.6107C23.2104 28.8195 22.8872 28.0054 22.6166 27.1732H33.8914L34.3946 29.0511H34.3943ZM35.4736 33.079C34.8889 33.3228 34.2911 33.5337 33.683 33.711C34.2189 33.0888 34.6953 32.4177 35.1058 31.7065L35.4732 33.079H35.4736ZM47.1786 22.3822C48.4175 17.9909 48.0428 13.3011 46.1222 9.1623H52.9886C53.5163 9.16374 54.022 9.374 54.3952 9.74713C54.7683 10.1203 54.9786 10.6259 54.9801 11.1536V41.4237H0V11.1534C0.00146929 10.6257 0.211763 10.1201 0.584922 9.74699C0.95808 9.37389 1.46376 9.16369 1.99144 9.1623H11.5999C9.99097 12.6229 9.45904 16.487 10.0731 20.2536C10.6872 24.0202 12.419 27.5153 15.0439 30.2856C17.6687 33.0558 21.0655 34.9734 24.7935 35.7895C28.5215 36.6056 32.4088 36.2826 35.951 34.8624L36.6475 37.462H36.6498C36.6959 37.6349 36.7917 37.7904 36.9253 37.9094C37.0588 38.0285 37.2243 38.1058 37.4013 38.1318C37.5783 38.1579 37.759 38.1315 37.9212 38.056C38.0834 37.9805 38.2199 37.8592 38.3139 37.7069L41.2658 32.929L46.2282 37.8915C46.4006 38.0639 46.6344 38.1607 46.8782 38.1607C47.122 38.1607 47.3558 38.0639 47.5282 37.8915L51.1948 34.2249C51.2802 34.1396 51.3479 34.0382 51.3941 33.9267C51.4403 33.8152 51.4641 33.6956 51.4641 33.5749C51.4641 33.4542 51.4403 33.3346 51.3941 33.2231C51.3479 33.1115 51.2802 33.0102 51.1948 32.9248L46.2323 27.9623L50.9567 25.0437C51.1201 24.9577 51.2539 24.8244 51.3404 24.6612C51.4269 24.4979 51.4621 24.3124 51.4415 24.1289C51.421 23.9453 51.3455 23.7722 51.225 23.6322C51.1045 23.4922 50.9445 23.3918 50.7661 23.3442L47.1782 22.3829L47.1786 22.3822ZM38.312 20.0063C38.3366 19.6701 38.3567 19.3337 38.3722 18.9969C38.386 18.6962 38.3966 18.4024 38.404 18.1154H46.0336C45.9688 19.399 45.7582 20.6711 45.4061 21.9071L38.312 20.0063ZM33.0268 18.5902C32.8708 18.5464 32.7059 18.5446 32.549 18.5851C32.392 18.6256 32.2486 18.7069 32.1333 18.8208C32.0179 18.9347 31.9348 19.077 31.8923 19.2334C31.8498 19.3899 31.8494 19.5547 31.8913 19.7113L33.3981 25.3345H22.0891C21.5171 22.9691 21.2042 20.5485 21.1559 18.1154H36.5676C36.5615 18.3937 36.5526 18.6612 36.5407 18.9179C36.5313 19.1216 36.5204 19.3233 36.5079 19.5229L33.0268 18.5902ZM32.4068 50.3943H22.5732V55.1613H19.3349C19.0911 55.1613 18.8572 55.2582 18.6848 55.4306C18.5124 55.603 18.4156 55.8368 18.4156 56.0807C18.4156 56.3245 18.5124 56.5583 18.6848 56.7307C18.8572 56.9031 19.0911 57 19.3349 57H35.6451C35.889 57 36.1228 56.9031 36.2952 56.7307C36.4676 56.5583 36.5645 56.3245 36.5645 56.0807C36.5645 55.8368 36.4676 55.603 36.2952 55.4306C36.1228 55.2582 35.889 55.1613 35.6451 55.1613H32.4068V50.3943Z" fill="white"/>
</svg>
