<svg width="56" height="56" viewBox="0 0 56 56" fill="none" xmlns="http://www.w3.org/2000/svg">
<g clip-path="url(#clip0_329_10)">
<path d="M51.0781 6.5625H50.9852C50.6441 3.55808 49.1377 0 46.1562 0C43.2389 0 41.6826 3.43263 41.3273 6.5625H39.3914C39.2338 5.17409 38.8782 3.88511 38.35 2.82898C37.438 1.00472 36.0928 0 34.5625 0C33.0322 0 31.687 1.00472 30.7748 2.82898C30.2468 3.88511 29.8911 5.17409 29.7335 6.5625H27.7977C27.4566 3.55808 25.9502 0 22.9688 0C20.0514 0 18.4951 3.43263 18.1398 6.5625H16.3133C15.9722 3.55808 14.4658 0 11.4844 0C8.56231 0 7.00962 3.4417 6.65547 6.5625H4.92188C2.20795 6.5625 0 8.77045 0 11.4844V54.3594C0 55.2654 0.734562 56 1.64062 56H54.3594C55.2654 56 56 55.2654 56 54.3594V11.4844C56 8.77045 53.792 6.5625 51.0781 6.5625ZM46.1562 3.28125C46.3965 3.28125 47.3292 4.23883 47.6768 6.5625H44.6357C44.9734 4.30522 45.8893 3.28125 46.1562 3.28125ZM33.7097 4.29647C34.129 3.45778 34.5056 3.28125 34.5625 3.28125C34.6194 3.28125 34.996 3.45778 35.4153 4.29647C35.7261 4.91805 35.9544 5.70259 36.083 6.5625H33.042C33.1706 5.70259 33.3989 4.91805 33.7097 4.29647ZM22.9688 3.28125C23.209 3.28125 24.1417 4.23883 24.4893 6.5625H21.4482C21.7859 4.30522 22.7018 3.28125 22.9688 3.28125ZM11.4844 3.28125C11.7247 3.28125 12.6573 4.23883 13.0049 6.5625H9.96384C10.3015 4.30522 11.2174 3.28125 11.4844 3.28125ZM52.7188 52.7188H3.28125V22.9688H52.7188V52.7188ZM52.7188 19.6875H3.28125V11.4844C3.28125 10.5797 4.01723 9.84375 4.92188 9.84375H6.65547C6.9965 12.8482 8.50292 16.4062 11.4844 16.4062C12.3904 16.4062 13.125 15.6717 13.125 14.7656C13.125 13.8596 12.3904 13.125 11.4844 13.125C11.2441 13.125 10.3114 12.1674 9.96384 9.84375H18.1398C18.4809 12.8482 19.9873 16.4062 22.9688 16.4062C23.8748 16.4062 24.6094 15.6717 24.6094 14.7656C24.6094 13.8596 23.8748 13.125 22.9688 13.125C22.7285 13.125 21.7958 12.1674 21.4482 9.84375H29.7336C30.0746 12.8482 31.581 16.4062 34.5625 16.4062C35.4686 16.4062 36.2031 15.6717 36.2031 14.7656C36.2031 13.8596 35.4686 13.125 34.5625 13.125C34.3222 13.125 33.3896 12.1674 33.042 9.84375H41.3273C41.6684 12.8482 43.1748 16.4062 46.1562 16.4062C47.0623 16.4062 47.7969 15.6717 47.7969 14.7656C47.7969 13.8596 47.0623 13.125 46.1562 13.125C45.916 13.125 44.9833 12.1674 44.6357 9.84375H51.0781C51.9828 9.84375 52.7188 10.5797 52.7188 11.4844V19.6875Z" fill="white"/>
<path d="M47.7969 26.25H8.20312C7.29706 26.25 6.5625 26.9846 6.5625 27.8906V47.7969C6.5625 48.7029 7.29706 49.4375 8.20312 49.4375H47.7969C48.7029 49.4375 49.4375 48.7029 49.4375 47.7969V27.8906C49.4375 26.9846 48.7029 26.25 47.7969 26.25ZM19.6875 46.1562H9.84375V39.4844H19.6875V46.1562ZM19.6875 36.2031H9.84375V29.5312H19.6875V36.2031ZM32.9219 46.1562H22.9688V39.4844H32.9219V46.1562ZM32.9219 36.2031H22.9688V29.5312H32.9219V36.2031ZM46.1562 46.1562H36.2031V39.4844H46.1562V46.1562ZM46.1562 36.2031H36.2031V29.5312H46.1562V36.2031Z" fill="white"/>
</g>
<defs>
<clipPath id="clip0_329_10">
<rect width="56" height="56" fill="white"/>
</clipPath>
</defs>
</svg>
