<svg width="595" height="180" viewBox="0 0 595 180" fill="none" xmlns="http://www.w3.org/2000/svg">
<path d="M40 8.63256H94.5394V27.8818H59.2492V140H40V8.63256ZM136.552 8.63256H155.801V27.8818V74.8228V76.6802V94.0721V95.7606V140H136.552V88.1622H142.462L142.124 87.9934L136.552 84.7852L120.511 75.4982V140H101.262V64.354V62.4966V45.1048V43.4162V27.8818V8.63256H120.511H136.552ZM136.552 63.6786V27.8818H120.511V54.3917L136.552 63.6786ZM197.814 8.63256H217.063V27.8818V63.3409L207.776 68.5753L217.063 73.9786V74.8228V76.6802V94.0721V95.7606V120.751V140H197.814H181.773H162.524V120.751V64.354V62.4966V45.1048V43.4162V27.8818V8.63256H181.773H197.814ZM197.814 88.1622H203.724L203.386 87.9934L197.814 84.7852L181.773 75.4982V120.751H197.814V88.1622ZM197.814 63.6786V27.8818H181.773V54.3917L197.814 63.6786ZM259.076 8.63256H278.325V27.8818V74.8228V76.6802V94.0721V95.7606V140H259.076V88.1622H264.986L264.648 87.9934L259.076 84.7852L243.035 75.4982V140H223.786V64.354V62.4966V45.1048V43.4162V27.8818V8.63256H243.035H259.076ZM259.076 63.6786V27.8818H243.035V54.3917L259.076 63.6786ZM320.338 8.63256H339.587V74.8228V76.6802V94.0721V95.7606V140H320.338V88.1622H326.248L325.91 87.9934L320.338 84.7852L304.297 75.4982V140H285.048V64.354V62.4966V45.1048V43.4162V8.63256H304.297V54.3917L320.338 63.6786V8.63256ZM400.849 49.4949H381.6V27.8818H365.559V120.751H381.6V84.7852V76.6802V63.6786L400.849 74.8228V76.6802V94.0721V95.7606V120.751V140H381.6H365.559H346.309V120.751V27.8818V8.63256H365.559H381.6H400.849V27.8818V49.4949ZM462.111 8.63256V63.3409L452.824 68.5753L462.111 73.9786V74.8228V76.6802V94.0721V95.7606V140H442.862V88.1622H448.771L448.434 87.9934L442.862 84.7852L426.821 75.4982V140H407.571V64.354V62.4966V45.1048V43.4162V8.63256H426.821V54.3917L442.862 63.6786V8.63256H462.111ZM504.123 8.63256H523.373V27.8818V74.8228V76.6802V94.0721V95.7606V140H504.123V88.1622H510.033L509.696 87.9934L504.123 84.7852L488.082 75.4982V140H468.833V64.354V62.4966V45.1048V43.4162V27.8818V8.63256H488.082H504.123ZM504.123 63.6786V27.8818H488.082V54.3917L504.123 63.6786ZM549.344 27.8818V63.6786L565.216 72.9655H565.385V27.8818H549.344ZM530.095 8.63256H584.634V140H565.385V97.4491H571.295L567.58 95.4229L565.385 94.0721L558.293 90.0196L549.344 95.0852V140H530.095V84.2786L539.213 78.8753L530.264 73.8097L530.095 73.6409V8.63256Z" fill="white"/>
<path d="M28 126.01L28 129.942L23.5021 130.615L23.5021 135.396L28 136.069L28 139.646L3.20833 135.679L3.20833 129.977L28 126.01ZM20.1375 134.9L20.1375 131.146L7.6 133.023L20.1375 134.9ZM3.20833 119.059C3.20833 117.029 3.68056 115.565 4.625 114.667C5.56945 113.747 6.99792 113.286 8.91042 113.286L9.79584 113.286C11.0708 113.286 12.1215 113.487 12.9479 113.888C13.7743 114.29 14.3882 114.927 14.7896 115.801C15.191 114.738 15.8521 113.994 16.7729 113.569C17.6701 113.121 18.7799 112.897 20.1021 112.897L22.1208 112.897C24.0333 112.897 25.4972 113.392 26.5125 114.384C27.5042 115.376 28 116.851 28 118.811L28 124.938L3.20833 124.938L3.20833 119.059ZM16.8438 121.042L24.4583 121.042L24.4583 118.811C24.4583 118.15 24.2813 117.654 23.9271 117.324C23.5729 116.969 22.9354 116.792 22.0146 116.792L19.8542 116.792C18.6972 116.792 17.9063 116.993 17.4813 117.394C17.0563 117.772 16.8438 118.41 16.8438 119.307L16.8438 121.042ZM6.75 121.042L13.3021 121.042L13.3021 119.519C13.3021 118.788 13.1132 118.221 12.7354 117.819C12.3576 117.394 11.6729 117.182 10.6813 117.182L9.3 117.182C8.40278 117.182 7.75347 117.347 7.35208 117.678C6.9507 117.985 6.75 118.481 6.75 119.165L6.75 121.042ZM3.20833 112.356L3.20833 100.314L6.75 100.314L6.75 104.387L28 104.387L28 108.283L6.75 108.283L6.75 112.356L3.20833 112.356ZM22.2979 95.6973C23.1951 95.6973 23.8326 95.5203 24.2104 95.1661C24.5646 94.7883 24.7417 94.2925 24.7417 93.6786C24.7417 93.0647 24.5646 92.5807 24.2104 92.2265C23.8326 91.8487 23.1951 91.6598 22.2979 91.6598L8.91042 91.6598C8.0132 91.6598 7.3875 91.8487 7.03334 92.2265C6.65556 92.5807 6.46667 93.0647 6.46667 93.6786C6.46667 94.2925 6.65556 94.7883 7.03334 95.1661C7.3875 95.5203 8.0132 95.6973 8.91042 95.6973L22.2979 95.6973ZM9.15833 99.5932C7.15139 99.5932 5.61667 99.0855 4.55417 98.0703C3.46806 97.055 2.925 95.5911 2.925 93.6786C2.925 91.7661 3.46806 90.3022 4.55417 89.2869C5.61667 88.2717 7.15139 87.764 9.15834 87.764L22.05 87.764C24.0569 87.764 25.6035 88.2717 26.6896 89.2869C27.7521 90.3022 28.2833 91.7661 28.2833 93.6786C28.2833 95.5911 27.7521 97.055 26.6896 98.0703C25.6035 99.0855 24.0569 99.5932 22.05 99.5932L9.15833 99.5932ZM24.4583 75.0652L24.4583 71.9131L3.20833 71.9131L3.20833 67.9819L28 67.9819L28 86.009L3.20833 86.009L3.20833 82.1485L24.4583 82.1485L24.4583 78.961L3.20833 78.961L3.20833 75.0652L24.4583 75.0652ZM18.1188 60.7616L20.3854 61.9657L28 61.9657L28 65.8616L3.20833 65.8616L3.20833 61.9657L14.0104 61.9657L3.20833 56.7949L3.20833 52.9699L14.2583 58.3887L28 52.9699L28 56.972L18.1188 60.7616ZM22.2979 48.3635C23.1951 48.3635 23.8326 48.1864 24.2104 47.8323C24.5646 47.4545 24.7417 46.9587 24.7417 46.3448C24.7417 45.7309 24.5646 45.2469 24.2104 44.8927C23.8326 44.5149 23.1951 44.326 22.2979 44.326L8.91042 44.326C8.0132 44.326 7.3875 44.5149 7.03334 44.8927C6.65556 45.2469 6.46667 45.7309 6.46667 46.3448C6.46667 46.9587 6.65556 47.4545 7.03334 47.8323C7.3875 48.1864 8.0132 48.3635 8.91042 48.3635L22.2979 48.3635ZM9.15834 52.2594C7.15139 52.2594 5.61667 51.7517 4.55417 50.7364C3.46806 49.7212 2.925 48.2573 2.925 46.3448C2.925 44.4323 3.46806 42.9684 4.55417 41.9531C5.61667 40.9378 7.15139 40.4302 9.15834 40.4302L22.05 40.4302C24.0569 40.4302 25.6035 40.9378 26.6896 41.9531C27.7521 42.9684 28.2833 44.4323 28.2833 46.3448C28.2833 48.2573 27.7521 49.7212 26.6896 50.7364C25.6035 51.7517 24.0569 52.2594 22.05 52.2594L9.15834 52.2594ZM6.75 27.7314L6.75 32.2647L21.8375 32.2647C23.0889 32.2647 24.116 32.4182 24.9188 32.7251C25.7215 33.0321 26.359 33.4453 26.8313 33.9647C27.2799 34.4842 27.5986 35.0862 27.7875 35.771C27.9764 36.4321 28.0708 37.1286 28.0708 37.8606C28.0708 38.2147 28.0708 38.5335 28.0708 38.8168C28.0708 39.1001 28.0472 39.4071 28 39.7376L24.4583 39.7376C24.4819 39.5251 24.4938 39.3008 24.4938 39.0647C24.4938 38.8286 24.4938 38.6043 24.4938 38.3918C24.4938 37.7779 24.3403 37.2585 24.0333 36.8335C23.7264 36.3849 23.0889 36.1606 22.1208 36.1606L3.20833 36.1606L3.20833 23.8356L28 23.8356L28 27.7314L6.75 27.7314ZM28 9.13681L28 13.0681L23.5021 13.741L23.5021 18.5222L28 19.1951L28 22.7722L3.20833 18.8056L3.20833 13.1035L28 9.13681ZM20.1375 18.0264L20.1375 14.2722L7.6 16.1493L20.1375 18.0264Z" fill="white"/>
<line x1="-0.00454545" y1="156.5" x2="582.995" y2="155.44" stroke="white" stroke-width="5"/>
</svg>
