<svg width="71" height="36" viewBox="0 0 71 36" fill="none" xmlns="http://www.w3.org/2000/svg">
<path fill-rule="evenodd" clip-rule="evenodd" d="M25.0526 17.0792C23.2724 14.9713 20.9195 13.4243 18.2786 12.6253C15.6377 11.8264 12.8219 11.8096 10.1717 12.5772C7.52152 13.3447 5.15046 14.8637 3.3453 16.9503C1.54014 19.037 0.3782 21.6019 0 24.335C2.10179 25.3032 4.30748 26.0279 6.57402 26.4946C9.06317 27.0117 11.5992 27.2694 14.1415 27.2636C14.8032 27.2636 15.4131 27.2502 15.971 27.2234C16.3229 27.2066 16.67 27.1854 17.0121 27.1597C18.4828 22.9912 21.3154 19.4399 25.0526 17.0792ZM14.1415 11.2879C15.4472 11.2879 16.7126 10.8352 17.722 10.0068C18.7314 9.17844 19.4223 8.02572 19.677 6.74504C19.9318 5.46437 19.7346 4.13498 19.1191 2.9834C18.5035 1.83182 17.5077 0.929293 16.3014 0.429606C15.095 -0.0700802 13.7527 -0.136011 12.5031 0.243048C11.2536 0.622107 10.1742 1.4227 9.44873 2.50842C8.7233 3.59413 8.39678 4.8978 8.52479 6.19727C8.65281 7.49675 9.22744 8.71163 10.1508 9.63492C10.6743 10.1598 11.2964 10.576 11.9813 10.8597C12.6661 11.1433 13.4002 11.2889 14.1415 11.2879ZM53.988 27.1597C54.3301 27.1853 54.6772 27.2065 55.0294 27.2234C55.5874 27.25 56.1971 27.2634 56.8585 27.2636C59.4008 27.2694 61.9368 27.0117 64.426 26.4946C66.6925 26.0279 68.8982 25.3032 71 24.335C70.622 21.6018 69.4602 19.0366 67.6551 16.9498C65.8499 14.863 63.4788 13.344 60.8285 12.5764C58.1782 11.8088 55.3623 11.8256 52.7213 12.6247C50.0804 13.4239 47.7275 14.9711 45.9474 17.0792C49.6846 19.44 52.5172 22.9912 53.988 27.1597ZM56.8585 11.2879C58.1643 11.2879 59.4296 10.8351 60.439 10.0067C61.4483 9.17835 62.1392 8.02561 62.394 6.74494C62.6487 5.46426 62.4515 4.13489 61.8359 2.98332C61.2204 1.83176 60.2246 0.929248 59.0182 0.429579C57.8118 -0.0700906 56.4695 -0.136006 55.22 0.243063C53.9705 0.622131 52.891 1.42273 52.1656 2.50845C51.4402 3.59416 51.1137 4.89782 51.2417 6.19729C51.3697 7.49676 51.9443 8.71164 52.8677 9.63492C53.3912 10.1598 54.0133 10.576 54.6982 10.8597C55.383 11.1433 56.1172 11.2889 56.8585 11.2879ZM18.4138 31.4619C18.9475 27.3074 20.9766 23.4897 24.1214 20.723C27.2663 17.9563 31.3114 16.4302 35.5001 16.4302C39.6887 16.4302 43.7338 17.9563 46.8787 20.723C50.0235 23.4897 52.0526 27.3074 52.5863 31.4619C50.0231 32.6584 47.3286 33.5507 44.5579 34.1208C38.5817 35.3487 32.4183 35.3487 26.4421 34.1208C23.6714 33.5508 20.977 32.6584 18.4138 31.4619ZM35.5 15.624C37.1073 15.624 38.665 15.0667 39.9074 14.047C41.1499 13.0273 42.0004 11.6084 42.314 10.0319C42.6276 8.45545 42.3848 6.81904 41.6271 5.4015C40.8694 3.98396 39.6436 2.873 38.1586 2.25791C36.6736 1.64283 35.0213 1.56168 33.4832 2.02829C31.945 2.4949 30.6163 3.4804 29.7233 4.81687C28.8304 6.15335 28.4284 7.7581 28.586 9.35769C28.7436 10.9573 29.451 12.4528 30.5875 13.5893C31.232 14.2353 31.9977 14.7477 32.8407 15.0968C33.6838 15.446 34.5875 15.6252 35.5 15.624Z" fill="white"/>
</svg>
