<svg width="75" height="57" viewBox="0 0 75 57" fill="none" xmlns="http://www.w3.org/2000/svg">
<path fill-rule="evenodd" clip-rule="evenodd" d="M27.0526 32.0792C25.2724 29.9713 22.9195 28.4243 20.2786 27.6253C17.6377 26.8264 14.8219 26.8096 12.1717 27.5772C9.52152 28.3447 7.15046 29.8637 5.3453 31.9503C3.54014 34.037 2.3782 36.6019 2 39.335C4.10179 40.3032 6.30748 41.0279 8.57402 41.4946C11.0632 42.0117 13.5992 42.2694 16.1415 42.2636C16.8032 42.2636 17.4131 42.2502 17.971 42.2234C18.3229 42.2066 18.67 42.1854 19.0121 42.1597C20.4828 37.9912 23.3154 34.4399 27.0526 32.0792ZM16.1415 26.2879C17.4472 26.2879 18.7126 25.8352 19.722 25.0068C20.7314 24.1784 21.4223 23.0257 21.677 21.745C21.9318 20.4644 21.7346 19.135 21.1191 17.9834C20.5035 16.8318 19.5077 15.9293 18.3014 15.4296C17.095 14.9299 15.7527 14.864 14.5031 15.243C13.2536 15.6221 12.1742 16.4227 11.4487 17.5084C10.7233 18.5941 10.3968 19.8978 10.5248 21.1973C10.6528 22.4967 11.2274 23.7116 12.1508 24.6349C12.6743 25.1598 13.2964 25.576 13.9813 25.8597C14.6661 26.1433 15.4002 26.2889 16.1415 26.2879ZM55.988 42.1597C56.3301 42.1853 56.6772 42.2065 57.0294 42.2234C57.5874 42.25 58.1971 42.2634 58.8585 42.2636C61.4008 42.2694 63.9368 42.0117 66.426 41.4946C68.6925 41.0279 70.8982 40.3032 73 39.335C72.622 36.6018 71.4602 34.0366 69.6551 31.9498C67.8499 29.863 65.4788 28.344 62.8285 27.5764C60.1782 26.8088 57.3623 26.8256 54.7213 27.6247C52.0804 28.4239 49.7275 29.9711 47.9474 32.0792C51.6846 34.44 54.5172 37.9912 55.988 42.1597ZM58.8585 26.2879C60.1643 26.2879 61.4296 25.8351 62.439 25.0067C63.4483 24.1783 64.1392 23.0256 64.394 21.7449C64.6487 20.4643 64.4515 19.1349 63.8359 17.9833C63.2204 16.8318 62.2246 15.9292 61.0182 15.4296C59.8118 14.9299 58.4695 14.864 57.22 15.2431C55.9705 15.6221 54.891 16.4227 54.1656 17.5084C53.4402 18.5942 53.1137 19.8978 53.2417 21.1973C53.3697 22.4968 53.9443 23.7116 54.8677 24.6349C55.3912 25.1598 56.0133 25.576 56.6982 25.8597C57.383 26.1433 58.1172 26.2889 58.8585 26.2879ZM20.4138 46.4619C20.9475 42.3074 22.9766 38.4897 26.1214 35.723C29.2663 32.9563 33.3114 31.4302 37.5001 31.4302C41.6887 31.4302 45.7338 32.9563 48.8787 35.723C52.0235 38.4897 54.0526 42.3074 54.5863 46.4619C52.0231 47.6584 49.3286 48.5507 46.5579 49.1208C40.5817 50.3487 34.4183 50.3487 28.4421 49.1208C25.6714 48.5508 22.977 47.6584 20.4138 46.4619ZM37.5 30.624C39.1073 30.624 40.665 30.0667 41.9074 29.047C43.1499 28.0273 44.0004 26.6084 44.314 25.0319C44.6276 23.4555 44.3848 21.819 43.6271 20.4015C42.8694 18.984 41.6436 17.873 40.1586 17.2579C38.6736 16.6428 37.0213 16.5617 35.4832 17.0283C33.945 17.4949 32.6163 18.4804 31.7233 19.8169C30.8304 21.1533 30.4284 22.7581 30.586 24.3577C30.7436 25.9573 31.451 27.4528 32.5875 28.5893C33.232 29.2353 33.9977 29.7477 34.8407 30.0968C35.6838 30.446 36.5875 30.6252 37.5 30.624Z" fill="white"/>
</svg>
