<svg width="53" height="53" viewBox="0 0 53 53" fill="none" xmlns="http://www.w3.org/2000/svg">
<g clip-path="url(#clip0_335_125)">
<path d="M31.7104 19.8813C32.0269 21.5033 31.9153 22.5921 31.3394 23.238C30.7996 23.8369 29.5402 24.3288 27.602 24.7071L23.5268 25.5022L22.0215 17.7878L26.0966 16.9927C28.0349 16.6144 29.3475 16.6056 30.1199 16.9884C30.8839 17.3286 31.4016 18.2989 31.7104 19.8813Z" fill="white"/>
<path d="M0.49029 31.5753C3.29325 45.9398 17.2105 55.3124 31.575 52.5095C45.9395 49.7065 55.3122 35.7893 52.5092 21.4248C49.7062 7.06025 35.789 -2.31241 21.4245 0.490545C7.05999 3.2935 -2.31267 17.2107 0.49029 31.5753ZM38.0453 26.447C36.4246 28.2418 33.9268 29.1396 29.4604 30.0111L24.5914 30.9612L25.0777 33.4529L32.0003 32.1021C32.4363 32.017 32.6727 32.1772 32.7498 32.5725L33.298 35.3815C33.3753 35.7779 33.2162 36.0142 32.7803 36.0992L25.8576 37.4501L26.7452 41.9986C26.8457 42.5136 26.7502 42.6553 26.2758 42.7479L20.1438 43.9444C19.6694 44.037 19.5277 43.9416 19.4272 43.4266L18.5394 38.877L15.5296 39.4643C15.0947 39.5492 14.8585 39.3901 14.7811 38.9937L14.233 36.1847C14.1558 35.7893 14.3147 35.552 14.7496 35.4672L17.7563 34.8805L16.9768 30.8854L13.9701 31.4721C13.5352 31.557 13.2989 31.3979 13.2218 31.0025L12.6816 28.2341C12.6044 27.8387 12.7635 27.6025 13.1984 27.5176L16.2051 26.9309L13.6577 13.8763C13.5883 13.5205 13.7551 13.3237 14.1428 13.2071C17.9593 12.1383 21.8041 11.2196 25.641 10.4709C29.9929 9.62173 33.1375 9.74686 35.0296 10.8151C36.9644 11.875 38.3138 14.3625 39.0694 18.2348C39.8412 22.1957 39.663 24.6529 38.0453 26.447Z" fill="white"/>
</g>
<defs>
<clipPath id="clip0_335_125">
<rect width="53" height="53" fill="white"/>
</clipPath>
</defs>
</svg>
