<svg width="51" height="51" viewBox="0 0 51 51" fill="none" xmlns="http://www.w3.org/2000/svg">
<path d="M41.4375 11.1562H39.8438V9.5625C39.8438 6.92596 37.699 4.78125 35.0625 4.78125H9.5625C6.92596 4.78125 4.78125 6.92596 4.78125 9.5625V35.0625C4.78125 37.699 6.92596 39.8438 9.5625 39.8438H11.1562V41.4375C11.1562 44.074 13.301 46.2188 15.9375 46.2188H33.4688C33.9287 46.2188 34.3652 46.0203 34.6679 45.6748L45.8241 32.9248C46.0787 32.6338 46.2188 32.261 46.2188 31.875V15.9375C46.2188 13.301 44.074 11.1562 41.4375 11.1562ZM14.3438 41.4375V15.9375C14.3438 15.0589 15.0589 14.3438 15.9375 14.3438H41.4375C42.3161 14.3438 43.0312 15.0589 43.0312 15.9375V30.2812H33.4688C32.5887 30.2812 31.875 30.9949 31.875 31.875V43.0312H15.9375C15.0589 43.0312 14.3438 42.3161 14.3438 41.4375Z" fill="white"/>
<path d="M18.3281 20.7188H39.0469C39.4869 20.7188 39.8438 20.3619 39.8438 19.9219V18.3281C39.8438 17.8879 39.4869 17.5312 39.0469 17.5312H18.3281C17.8881 17.5312 17.5312 17.8879 17.5312 18.3281V19.9219C17.5312 20.3619 17.8881 20.7188 18.3281 20.7188Z" fill="white"/>
<path d="M18.3281 27.0938H39.0469C39.4869 27.0938 39.8438 26.7369 39.8438 26.2969V24.7031C39.8438 24.2629 39.4869 23.9062 39.0469 23.9062H18.3281C17.8881 23.9062 17.5312 24.2629 17.5312 24.7031V26.2969C17.5312 26.7369 17.8881 27.0938 18.3281 27.0938Z" fill="white"/>
<path d="M27.8906 30.2812H18.3281C17.8881 30.2812 17.5312 30.6379 17.5312 31.0781V32.6719C17.5312 33.1119 17.8881 33.4688 18.3281 33.4688H27.8906C28.3307 33.4688 28.6875 33.1119 28.6875 32.6719V31.0781C28.6875 30.6379 28.3307 30.2812 27.8906 30.2812Z" fill="white"/>
<path d="M27.8906 36.6562H18.3281C17.8881 36.6562 17.5312 37.0129 17.5312 37.4531V39.0469C17.5312 39.4869 17.8881 39.8438 18.3281 39.8438H27.8906C28.3307 39.8438 28.6875 39.4869 28.6875 39.0469V37.4531C28.6875 37.0129 28.3307 36.6562 27.8906 36.6562Z" fill="white"/>
</svg>
